# xmcd CD database file
#
# Track frame offsets:
#	150
#	34027
#	77918
#	107542
#	128103
#	162917
#	188199
#	234391
#	257000
#	274059
#	308704
#
# Disc length: 4468 seconds
#
# Revision: 0
# Processed by: cddbd v1.5.2PL0 Copyright (c) Steve Scherf et al.
# Submitted via: CDex 1.82
#
DISCID=8911720b
DTITLE=City Meadow band - Round midnight
DYEAR=2007
DGENRE=Jazz
TTITLE0=round midnight
TTITLE1=Body and soul
TTITLE2=Lover man
TTITLE3=Cry me a river
TTITLE4=The nearness of you
TTITLE5=Georgia on my mind
TTITLE6=I remember Clifford
TTITLE7=My funny Valentine
TTITLE8=Sophisticated lady
TTITLE9=Misty
TTITLE10=Willow weep for me
EXTD=YEAR: 2007
EXTT0=
EXTT1=
EXTT2=
EXTT3=
EXTT4=
EXTT5=
EXTT6=
EXTT7=
EXTT8=
EXTT9=
EXTT10=
PLAYORDER=
